<mxfile host="65bd71144e">
    <diagram id="hrPpIJL88KWeDae8aYr6" name="Page-1">
        <mxGraphModel dx="3289" dy="1890" grid="1" gridSize="10" guides="1" tooltips="1" connect="1" arrows="1" fold="1" page="1" pageScale="1" pageWidth="850" pageHeight="1100" math="0" shadow="0">
            <root>
                <mxCell id="0"/>
                <mxCell id="1" parent="0"/>
                <mxCell id="83" value="" style="rounded=0;whiteSpace=wrap;html=1;" vertex="1" parent="1">
                    <mxGeometry x="-900" y="100" width="440" height="190" as="geometry"/>
                </mxCell>
                <mxCell id="12" value="" style="rounded=0;whiteSpace=wrap;html=1;" vertex="1" parent="1">
                    <mxGeometry x="-450" y="-190" width="430" height="360" as="geometry"/>
                </mxCell>
                <mxCell id="49" value="" style="rounded=0;whiteSpace=wrap;html=1;" vertex="1" parent="1">
                    <mxGeometry x="850" y="-70" width="360" height="300" as="geometry"/>
                </mxCell>
                <mxCell id="6" value="" style="rounded=0;whiteSpace=wrap;html=1;" vertex="1" parent="1">
                    <mxGeometry x="-140" y="250" width="1110" height="720" as="geometry"/>
                </mxCell>
                <mxCell id="8" value="" style="edgeStyle=none;html=1;" edge="1" parent="1" source="2" target="6">
                    <mxGeometry relative="1" as="geometry"/>
                </mxCell>
                <mxCell id="2" value="" style="rounded=0;whiteSpace=wrap;html=1;" vertex="1" parent="1">
                    <mxGeometry x="200" y="-120" width="430" height="310" as="geometry"/>
                </mxCell>
                <mxCell id="9" value="" style="rounded=0;whiteSpace=wrap;html=1;" vertex="1" parent="1">
                    <mxGeometry x="610" y="285" width="320" height="615" as="geometry"/>
                </mxCell>
                <mxCell id="10" value="Uploaded picture" style="rounded=0;whiteSpace=wrap;html=1;" vertex="1" parent="1">
                    <mxGeometry x="280" y="285" width="310" height="215" as="geometry"/>
                </mxCell>
                <mxCell id="15" value="Username" style="rounded=0;whiteSpace=wrap;html=1;" vertex="1" parent="1">
                    <mxGeometry x="355" y="10" width="120" height="60" as="geometry"/>
                </mxCell>
                <mxCell id="16" value="Password" style="rounded=0;whiteSpace=wrap;html=1;" vertex="1" parent="1">
                    <mxGeometry x="355" y="-70" width="120" height="60" as="geometry"/>
                </mxCell>
                <mxCell id="18" value="Current task" style="rounded=0;whiteSpace=wrap;html=1;" vertex="1" parent="1">
                    <mxGeometry x="630" y="340" width="280" height="60" as="geometry"/>
                </mxCell>
                <mxCell id="19" value="Upcoming task" style="rounded=0;whiteSpace=wrap;html=1;" vertex="1" parent="1">
                    <mxGeometry x="630" y="400" width="280" height="60" as="geometry"/>
                </mxCell>
                <mxCell id="20" value="&lt;span&gt;Upcoming task&lt;/span&gt;" style="rounded=0;whiteSpace=wrap;html=1;" vertex="1" parent="1">
                    <mxGeometry x="630" y="460" width="280" height="60" as="geometry"/>
                </mxCell>
                <mxCell id="21" value="&lt;span&gt;Upcoming task&lt;/span&gt;" style="rounded=0;whiteSpace=wrap;html=1;" vertex="1" parent="1">
                    <mxGeometry x="630" y="520" width="280" height="60" as="geometry"/>
                </mxCell>
                <mxCell id="22" value="&lt;span&gt;Upcoming task&lt;/span&gt;" style="rounded=0;whiteSpace=wrap;html=1;" vertex="1" parent="1">
                    <mxGeometry x="630" y="580" width="280" height="60" as="geometry"/>
                </mxCell>
                <mxCell id="23" value="&lt;span&gt;Upcoming task&lt;/span&gt;" style="rounded=0;whiteSpace=wrap;html=1;" vertex="1" parent="1">
                    <mxGeometry x="630" y="640" width="280" height="60" as="geometry"/>
                </mxCell>
                <mxCell id="24" value="&lt;span&gt;Upcoming task&lt;/span&gt;" style="rounded=0;whiteSpace=wrap;html=1;" vertex="1" parent="1">
                    <mxGeometry x="630" y="700" width="280" height="60" as="geometry"/>
                </mxCell>
                <mxCell id="25" value="&lt;span&gt;Upcoming task&lt;/span&gt;" style="rounded=0;whiteSpace=wrap;html=1;" vertex="1" parent="1">
                    <mxGeometry x="630" y="760" width="280" height="60" as="geometry"/>
                </mxCell>
                <mxCell id="26" value="&lt;span&gt;Upcoming task&lt;/span&gt;" style="rounded=0;whiteSpace=wrap;html=1;" vertex="1" parent="1">
                    <mxGeometry x="630" y="820" width="280" height="60" as="geometry"/>
                </mxCell>
                <mxCell id="27" value="All tasks for today :)" style="rounded=0;whiteSpace=wrap;html=1;" vertex="1" parent="1">
                    <mxGeometry x="610" y="285" width="320" height="45" as="geometry"/>
                </mxCell>
                <mxCell id="55" style="edgeStyle=none;html=1;entryX=0.5;entryY=1;entryDx=0;entryDy=0;" edge="1" parent="1" source="29" target="49">
                    <mxGeometry relative="1" as="geometry"/>
                </mxCell>
                <mxCell id="29" value="View or change" style="rounded=0;whiteSpace=wrap;html=1;" vertex="1" parent="1">
                    <mxGeometry x="820" y="350" width="90" height="40" as="geometry"/>
                </mxCell>
                <mxCell id="48" value="Task" style="rounded=0;whiteSpace=wrap;html=1;" vertex="1" parent="1">
                    <mxGeometry x="850" y="-70" width="180" height="90" as="geometry"/>
                </mxCell>
                <mxCell id="50" value="Change task" style="rounded=0;whiteSpace=wrap;html=1;" vertex="1" parent="1">
                    <mxGeometry x="850" y="20" width="120" height="60" as="geometry"/>
                </mxCell>
                <mxCell id="51" value="Erase task" style="rounded=0;whiteSpace=wrap;html=1;" vertex="1" parent="1">
                    <mxGeometry x="1090" y="20" width="120" height="60" as="geometry"/>
                </mxCell>
                <mxCell id="52" value="Set new time" style="rounded=0;whiteSpace=wrap;html=1;" vertex="1" parent="1">
                    <mxGeometry x="970" y="20" width="120" height="60" as="geometry"/>
                </mxCell>
                <mxCell id="53" value="Random positive afermation" style="rounded=0;whiteSpace=wrap;html=1;" vertex="1" parent="1">
                    <mxGeometry x="850" y="80" width="360" height="90" as="geometry"/>
                </mxCell>
                <mxCell id="59" value="View or change" style="rounded=0;whiteSpace=wrap;html=1;" vertex="1" parent="1">
                    <mxGeometry x="820" y="650" width="90" height="40" as="geometry"/>
                </mxCell>
                <mxCell id="60" value="View or change" style="rounded=0;whiteSpace=wrap;html=1;" vertex="1" parent="1">
                    <mxGeometry x="820" y="710" width="90" height="40" as="geometry"/>
                </mxCell>
                <mxCell id="61" value="View or change" style="rounded=0;whiteSpace=wrap;html=1;" vertex="1" parent="1">
                    <mxGeometry x="820" y="770" width="90" height="40" as="geometry"/>
                </mxCell>
                <mxCell id="62" value="View or change" style="rounded=0;whiteSpace=wrap;html=1;" vertex="1" parent="1">
                    <mxGeometry x="820" y="830" width="90" height="40" as="geometry"/>
                </mxCell>
                <mxCell id="63" value="View or change" style="rounded=0;whiteSpace=wrap;html=1;" vertex="1" parent="1">
                    <mxGeometry x="820" y="470" width="90" height="40" as="geometry"/>
                </mxCell>
                <mxCell id="64" value="View or change" style="rounded=0;whiteSpace=wrap;html=1;" vertex="1" parent="1">
                    <mxGeometry x="820" y="530" width="90" height="40" as="geometry"/>
                </mxCell>
                <mxCell id="65" value="View or change" style="rounded=0;whiteSpace=wrap;html=1;" vertex="1" parent="1">
                    <mxGeometry x="820" y="590" width="90" height="40" as="geometry"/>
                </mxCell>
                <mxCell id="66" value="View or change" style="rounded=0;whiteSpace=wrap;html=1;" vertex="1" parent="1">
                    <mxGeometry x="820" y="410" width="90" height="40" as="geometry"/>
                </mxCell>
                <mxCell id="68" value="Log in button" style="rounded=0;whiteSpace=wrap;html=1;" vertex="1" parent="1">
                    <mxGeometry x="290" y="80" width="260" height="60" as="geometry"/>
                </mxCell>
                <mxCell id="75" style="edgeStyle=none;html=1;entryX=1;entryY=0.25;entryDx=0;entryDy=0;" edge="1" parent="1" source="69" target="12">
                    <mxGeometry relative="1" as="geometry"/>
                </mxCell>
                <mxCell id="69" value="View legacy data" style="rounded=0;whiteSpace=wrap;html=1;" vertex="1" parent="1">
                    <mxGeometry x="-100" y="285" width="350" height="100" as="geometry"/>
                </mxCell>
                <mxCell id="84" style="edgeStyle=none;html=1;entryX=1;entryY=0.5;entryDx=0;entryDy=0;" edge="1" parent="1" source="71" target="83">
                    <mxGeometry relative="1" as="geometry"/>
                </mxCell>
                <mxCell id="71" value="Create new task&lt;span style=&quot;color: rgba(0 , 0 , 0 , 0) ; font-family: monospace ; font-size: 0px&quot;&gt;%3CmxGraphModel%3E%3Croot%3E%3CmxCell%20id%3D%220%22%2F%3E%3CmxCell%20id%3D%221%22%20parent%3D%220%22%2F%3E%3CmxCell%20id%3D%222%22%20value%3D%22View%20legacy%20data%22%20style%3D%22rounded%3D0%3BwhiteSpace%3Dwrap%3Bhtml%3D1%3B%22%20vertex%3D%221%22%20parent%3D%221%22%3E%3CmxGeometry%20x%3D%22-100%22%20y%3D%22285%22%20width%3D%22350%22%20height%3D%22100%22%20as%3D%22geometry%22%2F%3E%3C%2FmxCell%3E%3C%2Froot%3E%3C%2FmxGraphModel%3E&lt;/span&gt;" style="rounded=0;whiteSpace=wrap;html=1;" vertex="1" parent="1">
                    <mxGeometry x="-100" y="400" width="350" height="100" as="geometry"/>
                </mxCell>
                <mxCell id="72" value="Generate random positive affermation" style="rounded=0;whiteSpace=wrap;html=1;" vertex="1" parent="1">
                    <mxGeometry x="-100" y="520" width="350" height="100" as="geometry"/>
                </mxCell>
                <mxCell id="103" style="edgeStyle=none;html=1;" edge="1" parent="1" source="74" target="100">
                    <mxGeometry relative="1" as="geometry"/>
                </mxCell>
                <mxCell id="74" value="Profile" style="rounded=0;whiteSpace=wrap;html=1;" vertex="1" parent="1">
                    <mxGeometry x="-100" y="840" width="350" height="100" as="geometry"/>
                </mxCell>
                <mxCell id="76" value="Yesterday" style="rounded=0;whiteSpace=wrap;html=1;" vertex="1" parent="1">
                    <mxGeometry x="-430" y="-80" width="120" height="60" as="geometry"/>
                </mxCell>
                <mxCell id="77" value="Today" style="rounded=0;whiteSpace=wrap;html=1;" vertex="1" parent="1">
                    <mxGeometry x="-430" y="-162.5" width="120" height="60" as="geometry"/>
                </mxCell>
                <mxCell id="79" value="A time before time" style="rounded=0;whiteSpace=wrap;html=1;" vertex="1" parent="1">
                    <mxGeometry x="-430" y="80" width="120" height="60" as="geometry"/>
                </mxCell>
                <mxCell id="80" value="Day before yesterday" style="rounded=0;whiteSpace=wrap;html=1;" vertex="1" parent="1">
                    <mxGeometry x="-430" width="120" height="60" as="geometry"/>
                </mxCell>
                <mxCell id="82" value="" style="edgeStyle=none;html=1;entryX=0.195;entryY=-0.011;entryDx=0;entryDy=0;entryPerimeter=0;" edge="1" parent="1" target="12">
                    <mxGeometry relative="1" as="geometry">
                        <mxPoint x="-363.04857898215414" y="-255" as="sourcePoint"/>
                    </mxGeometry>
                </mxCell>
                <mxCell id="81" value="These are clickable buttons what will bering up the info for the day they are clicked on, a long list of days would work but a UI similar to a calender would likely be best" style="rounded=0;whiteSpace=wrap;html=1;fillColor=#a20025;fontColor=#ffffff;strokeColor=#6F0000;" vertex="1" parent="1">
                    <mxGeometry x="-400" y="-380" width="260" height="120" as="geometry"/>
                </mxCell>
                <mxCell id="85" value="What is the task?" style="rounded=0;whiteSpace=wrap;html=1;" vertex="1" parent="1">
                    <mxGeometry x="-900" y="100" width="440" height="77.5" as="geometry"/>
                </mxCell>
                <mxCell id="86" value="Set notification time" style="rounded=0;whiteSpace=wrap;html=1;" vertex="1" parent="1">
                    <mxGeometry x="-680" y="177.5" width="220" height="60" as="geometry"/>
                </mxCell>
                <mxCell id="87" value="Set notification date" style="rounded=0;whiteSpace=wrap;html=1;" vertex="1" parent="1">
                    <mxGeometry x="-900" y="177.5" width="220" height="60" as="geometry"/>
                </mxCell>
                <mxCell id="88" value="Set location" style="rounded=0;whiteSpace=wrap;html=1;" vertex="1" parent="1">
                    <mxGeometry x="-900" y="237.5" width="220" height="60" as="geometry"/>
                </mxCell>
                <mxCell id="90" style="edgeStyle=none;html=1;entryX=0;entryY=0.5;entryDx=0;entryDy=0;" edge="1" parent="1" source="89" target="88">
                    <mxGeometry relative="1" as="geometry"/>
                </mxCell>
                <mxCell id="89" value="The location is seperate from the general info so it's easier to read" style="rounded=0;whiteSpace=wrap;html=1;fillColor=#a20025;fontColor=#ffffff;strokeColor=#6F0000;" vertex="1" parent="1">
                    <mxGeometry x="-1150" y="220" width="190" height="100" as="geometry"/>
                </mxCell>
                <mxCell id="91" value="More details" style="rounded=0;whiteSpace=wrap;html=1;" vertex="1" parent="1">
                    <mxGeometry x="-680" y="237.5" width="220" height="60" as="geometry"/>
                </mxCell>
                <mxCell id="92" value="Details/Notes" style="rounded=0;whiteSpace=wrap;html=1;" vertex="1" parent="1">
                    <mxGeometry x="1030" y="-70" width="180" height="90" as="geometry"/>
                </mxCell>
                <mxCell id="93" value="Edit Details/Notes" style="rounded=0;whiteSpace=wrap;html=1;" vertex="1" parent="1">
                    <mxGeometry x="850" y="170" width="360" height="60" as="geometry"/>
                </mxCell>
                <mxCell id="95" value="Weather" style="rounded=0;whiteSpace=wrap;html=1;" vertex="1" parent="1">
                    <mxGeometry x="280" y="510" width="310" height="215" as="geometry"/>
                </mxCell>
                <mxCell id="96" value="Uploaded picture" style="rounded=0;whiteSpace=wrap;html=1;" vertex="1" parent="1">
                    <mxGeometry x="280" y="740" width="310" height="215" as="geometry"/>
                </mxCell>
                <mxCell id="98" style="edgeStyle=none;html=1;entryX=0.5;entryY=1;entryDx=0;entryDy=0;" edge="1" parent="1" source="97" target="96">
                    <mxGeometry relative="1" as="geometry"/>
                </mxCell>
                <mxCell id="97" value="Uploaded pictures are posted by the user" style="rounded=0;whiteSpace=wrap;html=1;fillColor=#a20025;fontColor=#ffffff;strokeColor=#6F0000;" vertex="1" parent="1">
                    <mxGeometry x="380" y="990" width="120" height="60" as="geometry"/>
                </mxCell>
                <mxCell id="99" value="Quote of the day" style="rounded=0;whiteSpace=wrap;html=1;" vertex="1" parent="1">
                    <mxGeometry x="-100" y="630" width="350" height="190" as="geometry"/>
                </mxCell>
                <mxCell id="100" value="" style="rounded=0;whiteSpace=wrap;html=1;" vertex="1" parent="1">
                    <mxGeometry x="-780" y="530" width="520" height="460" as="geometry"/>
                </mxCell>
                <mxCell id="101" value="" style="rounded=0;whiteSpace=wrap;html=1;" vertex="1" parent="1">
                    <mxGeometry x="-530" y="562.5" width="120" height="60" as="geometry"/>
                </mxCell>
                <mxCell id="102" value="Username" style="rounded=0;whiteSpace=wrap;html=1;" vertex="1" parent="1">
                    <mxGeometry x="-740" y="562.5" width="120" height="60" as="geometry"/>
                </mxCell>
            </root>
        </mxGraphModel>
    </diagram>
</mxfile>